<svg width="40" height="40" fill="none" xmlns="http://www.w3.org/2000/svg">
    <path fill-rule="evenodd" clip-rule="evenodd" d="M10.711 27.428C4.343 28.543 0 30.769 0 33.333 0 37.015 8.954 40 20 40s20-2.985 20-6.667c0-2.564-4.343-4.79-10.711-5.905-2.401 2.623-5.678 4.239-9.289 4.239-3.611 0-6.888-1.616-9.289-4.24Z" fill="#1A1A1C" fill-opacity=".05"/>
    <path fill-rule="evenodd" clip-rule="evenodd" d="M20 40c-5.885 0-11.177-.848-14.837-2.197L20 32v8Z" fill="#1A1A1C" fill-opacity=".5"/>
    <mask id="a" style="mask-type:alpha" maskUnits="userSpaceOnUse" x="6" y="1" width="28" height="31">
        <path d="M32.833 16.667c0 8.065-5.8 14.5-12.833 14.5-7.034 0-12.833-6.435-12.833-14.5 0-8.065 5.8-14.5 12.833-14.5 7.034 0 12.833 6.435 12.833 14.5Z" fill="#9B9B9B" stroke="#000"/>
    </mask>
    <g mask="url(#a)">
        <path d="M21.667 15.833c.92 0 1.666-1.119 1.666-2.5 0-1.38-.746-2.5-1.666-2.5-.92 0-1.667 1.12-1.667 2.5 0 1.381.746 2.5 1.667 2.5ZM14.667 15.25c.736 0 1.333-.895 1.333-2s-.597-2-1.333-2c-.737 0-1.334.895-1.334 2s.597 2 1.334 2Z" fill="#1A1A1C"/>
        <path d="M32.833 16.667c0 8.065-5.8 14.5-12.833 14.5-7.034 0-12.833-6.435-12.833-14.5 0-8.065 5.8-14.5 12.833-14.5 7.034 0 12.833 6.435 12.833 14.5Z" stroke="#1A1A1C"/>
        <path d="M18.17 15.893a.5.5 0 0 0-.984-.181l.983.18Zm.15 5.62a.5.5 0 1 0 .181-.983l-.181.983Zm-1.134-5.801-.001.004-.001.005v.005l-.002.004v.005l-.002.005v.004l-.001.005a.07.07 0 0 1-.001.004v.005l-.002.004v.005l-.001.004-.001.004v.005l-.002.004v.004l-.001.004v.004l-.002.004v.005l-.001.004v.004l-.002.003v.004l-.001.004v.004l-.002.004v.008l-.002.004v.003a.292.292 0 0 1-.002.011l-.001.004v.003l-.001.004v.004a.043.043 0 0 0-.002.007v.003l-.002.003v.007l-.001.003v.004l-.002.003v.006l-.001.004v.003l-.002.003v.006l-.001.003v.003l-.001.003v.003l-.001.003v.003l-.002.003v.006l-.001.002v.003l-.001.003v.003l-.001.003v.002l-.001.003v.003l-.001.002v.003l-.001.003v.002l-.001.003v.002l-.001.003v.005l-.001.002v.003l-.001.002v.003l-.001.002v.003l-.001.002v.005l-.001.002v.002l-.001.002v.005l-.001.002v.002l-.001.003v.002l-.001.002v.004l-.001.002v.004l-.001.003v.002l-.001.002v.004l-.001.002v.004a.092.092 0 0 1-.002.003v.006l-.001.002v.004l-.001.002v.004l-.001.001v.004l-.001.002v.003l-.001.002v.004l-.001.001v.004l-.001.002v.001a.057.057 0 0 1 0 .004l-.001.001v.004l-.001.002v.003l-.001.002v.003l-.001.002v.004l-.001.002v.003l-.001.002v.003l-.001.002v.005l-.001.001v.003l-.001.002v.003l-.001.002v.005l-.001.001v.002a.048.048 0 0 1-.001.005v.003l-.001.002v.003l-.001.001v.004l-.001.001v.005l-.001.002v.003l-.001.002v.003l-.001.002v.003l-.001.002v.003l-.001.002v.005l-.001.002v.003l-.001.002v.004l-.001.001v.004l-.001.002v.004l-.001.001v.004l-.001.002v.004l-.001.002v.002l-.001.002v.004l-.001.002v.004l-.001.002v.002l-.001.002v.004l-.001.002v.004l-.001.002v.002l-.001.003v.004l-.001.002v.002l-.001.003v.002l-.001.002v.005l-.001.002v.003l-.001.002v.002l-.001.003v.005l-.001.002v.003l-.001.002v.002l-.001.003v.003l-.001.002v.003l-.001.003v.002l-.001.003v.003l-.001.002v.003l-.001.003v.002l-.001.003v.003l-.001.003v.003l-.001.003v.003l-.001.003v.003l-.001.003-.001.003v.003l-.001.003v.003l-.001.003v.003l-.001.003-.001.004v.003l-.001.003v.003l-.001.004-.001.003v.003l-.001.004v.003l-.002.004v.007l-.001.003-.001.004v.003l-.002.004v.004a.06.06 0 0 1 0 .003l-.002.004v.008l-.002.003v.004l-.001.004v.004l-.002.004v.004l-.001.004v.004l-.002.004v.004l-.001.004v.004l-.002.005v.004l-.001.004v.004l-.002.005v.004l-.001.005-.001.004v.004l-.002.005v.005l-.002.004v.005l-.001.004-.001.005v.005l-.002.005v.004l-.002.005v.005l-.001.005-.001.005-.001.005-.001.005-.001.005-.001.005-.001.005v.006l-.002.005v.005l-.002.005v.006l-.002.005v.006a.09.09 0 0 0-.003.01v.006l-.002.006v.005l-.002.006-.001.006-.001.006-.001.005a.15.15 0 0 1-.002.012l-.001.006-.002.006a.126.126 0 0 1-.002.012v.006l-.002.006-.001.007-.001.006-.002.006v.007l-.002.006-.001.006-.001.007-.001.007-.002.006v.007l-.002.006-.001.007-.002.007v.007l-.002.006-.001.007-.002.007-.001.007-.001.008-.002.007v.007l-.002.007-.002.007v.008l-.002.007-.002.007-.001.008a.197.197 0 0 1-.003.015l-.001.007-.002.008-.001.008a.176.176 0 0 0-.003.015l-.001.008-.002.008-.001.008a.19.19 0 0 1-.002.008l-.001.008-.002.008-.001.009-.002.008a.203.203 0 0 0-.001.008l-.002.008a.248.248 0 0 1-.001.009l-.002.008-.002.009a.26.26 0 0 1-.003.017l-.001.009-.002.008a.23.23 0 0 1-.002.01l-.001.008-.002.009-.001.009-.002.009-.002.01-.001.008a.25.25 0 0 0-.002.01l-.002.009a.303.303 0 0 0-.002.009l-.001.01-.002.009-.002.01a.322.322 0 0 1-.002.009l-.001.01-.002.009-.002.01-.002.01c0 .003 0 .006-.002.01l-.001.01-.002.01-.002.01-.002.01-.002.01-.002.01c0 .003 0 .007-.002.01l-.001.01-.002.01-.002.011-.002.01-.002.011-.002.01-.002.012a.409.409 0 0 0-.008.043.518.518 0 0 1-.002.011l-.002.011-.002.011-.002.012a.438.438 0 0 1-.002.01l-.002.012-.003.012c0 .003 0 .007-.002.011l-.002.012a2.6 2.6 0 0 1-.002.011l-.002.012a2.733 2.733 0 0 0-.004.023l-.003.012-.002.012-.002.012-.002.012-.003.013-.002.012-.002.012-.002.012-.003.013-.002.012a.67.67 0 0 1-.002.013l-.003.013-.002.012-.002.013-.003.013-.002.013-.002.013-.003.013-.002.013-.003.013-.002.013a.63.63 0 0 0-.003.014l-.002.013a.784.784 0 0 1-.002.014l-.003.013-.002.014-.003.014-.003.013-.002.014c0 .005-.002.01-.003.014a.58.58 0 0 0-.002.014l-.003.014-.002.014-.003.015-.003.014-.002.014.983.181.003-.014.002-.014a.706.706 0 0 0 .006-.029l.002-.014.003-.014.002-.014.003-.014.003-.013.002-.014.002-.014.003-.013c0-.005.002-.01.003-.014a3.504 3.504 0 0 1 .004-.026l.003-.014.002-.013.003-.013.002-.013.003-.013.002-.013.002-.013.003-.012.002-.013a2.999 2.999 0 0 1 .005-.025l.002-.013.002-.012c0-.005.002-.009.003-.013l.002-.012.002-.012.002-.012.002-.012.003-.012.002-.012.002-.012.002-.012.002-.012a2.6 2.6 0 0 1 .003-.012l.002-.011.002-.012.002-.011.002-.012a2.41 2.41 0 0 1 .004-.022l.002-.011.002-.012.002-.01.002-.012.002-.01.002-.012.002-.01.002-.011.002-.01.002-.012.002-.01.002-.01.002-.011.002-.01.002-.01.002-.011.002-.01.002-.01c0-.004 0-.007.002-.01l.001-.01.002-.01.002-.01.002-.01.002-.01.001-.01.002-.01.002-.009.002-.01a.31.31 0 0 0 .001-.009l.002-.01.002-.009.002-.01.001-.008.002-.01.002-.009.001-.009.002-.009.002-.009.001-.009.002-.009.002-.008a.23.23 0 0 1 .001-.01l.002-.008a.26.26 0 0 1 .003-.017l.002-.009.001-.008a.69.69 0 0 1 .002-.008l.001-.009.002-.008.001-.008.002-.008.001-.009.002-.008.001-.008.002-.008.001-.008.002-.007.001-.008.001-.008a1.073 1.073 0 0 1 .008-.038v-.008l.002-.007.002-.007v-.008l.002-.007.002-.007v-.007l.002-.007.002-.007V17.1a.211.211 0 0 1 .003-.014l.002-.007v-.007l.002-.007.001-.006.002-.007v-.007l.002-.006.001-.007.001-.006.002-.007v-.006l.002-.007.001-.006.001-.006.001-.006.002-.006v-.007l.002-.006v-.006l.002-.006.001-.006.001-.006.001-.005.001-.006.001-.006.002-.006v-.005l.002-.006v-.006l.002-.005v-.006l.002-.005v-.006l.002-.005v-.005l.002-.006v-.005l.002-.005v-.005l.001-.006.001-.005.001-.005.001-.005.001-.005.001-.005.001-.005v-.005l.002-.004v-.005l.002-.005v-.005l.001-.004.001-.005.001-.005v-.004l.002-.005a.07.07 0 0 1 0-.004l.001-.005.001-.004.001-.005v-.004a.065.065 0 0 1 .002-.009l.001-.004v-.004l.002-.004v-.005l.001-.004.001-.004v-.004l.002-.004v-.008l.002-.004v-.004l.001-.004v-.003l.002-.004v-.008l.002-.004v-.007l.002-.003v-.008l.002-.003v-.007l.002-.004v-.006l.001-.004.001-.003v-.003l.001-.004v-.003l.001-.003.001-.003V16.6l.001-.003v-.003l.001-.003v-.003l.001-.003.001-.003v-.003l.001-.003v-.003l.001-.003v-.003l.001-.003v-.003l.001-.003v-.002l.001-.003v-.003l.001-.003v-.002l.001-.003v-.003l.001-.002v-.003l.001-.003v-.002l.001-.003v-.002l.001-.003v-.002l.001-.003v-.002l.001-.003v-.005l.001-.002v-.002l.001-.003v-.002l.001-.002v-.005l.001-.002v-.002l.001-.003v-.002l.001-.002v-.004l.001-.003v-.004l.001-.002v-.002l.001-.002v-.004l.001-.002v-.002l.001-.002v-.004l.001-.002v-.004l.001-.002v-.004l.001-.002v-.004a.079.079 0 0 1 .002-.005v-.006l.001-.001v-.004l.001-.002v-.003l.001-.002v-.004l.001-.001v-.004l.001-.001a.057.057 0 0 1 0-.004l.001-.001v-.004l.001-.001v-.005l.001-.002v-.003l.001-.002v-.003l.001-.002v-.005l.001-.001v-.004a.048.048 0 0 0 .002-.004.048.048 0 0 0 0-.005v-.002l.001-.001v-.004l.001-.001v-.005l.001-.002v-.003l.001-.001a.048.048 0 0 1 0-.004l.001-.001v-.005l.001-.002v-.003l.001-.002v-.003l.001-.002v-.005l.001-.001V16.3l.001-.001a.057.057 0 0 0 .001-.006v-.003l.001-.002v-.003l.001-.002v-.004l.001-.001v-.004l.001-.002v-.003l.001-.002v-.004l.001-.002v-.004l.001-.002v-.003l.001-.002v-.004l.001-.002v-.002l.001-.002v-.004l.001-.002v-.005l.001-.002v-.002l.001-.002v-.004l.001-.002v-.003l.001-.002v-.004l.001-.002v-.003l.001-.002V16.2l.001-.003v-.004l.001-.003v-.002l.001-.002v-.003l.001-.002v-.003l.001-.002v-.003l.001-.002v-.005l.001-.003v-.003l.001-.002v-.003l.001-.003v-.002l.001-.003v-.003l.001-.003v-.002l.001-.003v-.003l.001-.003a.144.144 0 0 0 .002-.009v-.003l.001-.003v-.003l.001-.003v-.003a.175.175 0 0 1 .002-.006v-.003l.001-.003v-.003l.001-.004v-.003a.192.192 0 0 1 .002-.006v-.004l.001-.003.001-.004v-.003l.001-.003v-.004l.002-.003v-.007l.002-.004v-.007l.002-.004v-.007l.002-.004v-.008l.002-.004v-.003l.001-.004v-.004l.002-.004v-.004l.001-.004v-.004l.002-.005v-.004l.001-.004v-.004l.002-.004v-.005l.001-.004.001-.004v-.005l.002-.004v-.005a.07.07 0 0 1 .001-.004l.001-.005.001-.004v-.005l.002-.004v-.005l.001-.005.001-.004.001-.005-.983-.181Zm-.453 2.458c-.236 1.282-.1 2.123.313 2.66.414.538 1.01.635 1.274.683l.181-.983c-.282-.052-.506-.107-.662-.31-.156-.203-.34-.692-.123-1.869l-.983-.18Z" fill="#1A1A1C"/>
        <path d="M15.838 24.37c.827.638 2.984 1.541 5 .053" stroke="#1A1A1C" stroke-linecap="round"/>
    </g>
</svg>
